# xmcd CD database file
#
# Track frame offsets:
#	150
#	28692
#	53409
#	69266
#	99080
#	124894
#	149069
#	177298
#	195615
#	217951
#	230782
#	256887
#
# Disc length: 3818 seconds
#
# Revision: 0
# Processed by: cddbd v1.5.2PL0 Copyright (c) Steve Scherf et al.
# Submitted via: CDex 1.70beta2
#
DISCID=a70ee80c
DTITLE=Malte and Tom - Trailer
DYEAR=2008
DGENRE=Jazz
TTITLE0=autumn leaves
TTITLE1=night and day
TTITLE2=all of me
TTITLE3=sunshine of my life
TTITLE4=let it be
TTITLE5=blue bossa
TTITLE6=summertime
TTITLE7=girl from ipanema
TTITLE8=moon river
TTITLE9=the lady is a tramp
TTITLE10=sunny
TTITLE11=over the rainbow
EXTD=YEAR: 2008
EXTT0=
EXTT1=
EXTT2=
EXTT3=
EXTT4=
EXTT5=
EXTT6=
EXTT7=
EXTT8=
EXTT9=
EXTT10=
EXTT11=
PLAYORDER=
